<?xml version="1.0" encoding="UTF-8"?>
<svg id="b" xmlns="http://www.w3.org/2000/svg" viewBox="0 0 300 300">
    <defs>
        <style>.d{fill:#bdbdbd;}.e{fill:#fff;}.f{fill:#424242;}</style>
    </defs>
    <g id="c">
        <path class="d" d="M0,6.94v286.11c0,3.83,3.11,6.94,6.94,6.94h204.09s-19.05-26.21-19.05-26.21H26.22V26.3L7.11,0h-.16C3.11,0,0,3.11,0,6.94Z"/>
        <path class="f" d="M39.52,0l19.05,26.21h215.29v247.57h-21.62l19.05,26.21h21.77c3.84,0,6.94-3.11,6.94-6.94V6.94c0-3.83-3.11-6.94-6.94-6.94H39.52Z"/>
        <path class="e" d="M161.46,167.8c23.69-7.24,41.12-29.4,41.12-55.31,0-31.72-26.1-57.81-57.83-57.81h-69.99v186.83h26.22V80.89h43.65c.08,0,.17,0,.25,0,17.11,0,31.19,14.07,31.19,31.18s-13.96,31.07-30.99,31.18h-33.87l113.92,156.76h32.41l-96.07-132.2Z"/>
    </g>
</svg>