<?xml version="1.0" encoding="UTF-8"?><svg id="b" xmlns="http://www.w3.org/2000/svg" viewBox="0 0 180 180"><defs><style>.d{fill:#bdbdbd;}.e{fill:#fff;}.f{fill:#424242;}</style></defs><g id="c"><rect x="0" y="0" width="180" height="180" rx="5" ry="5"/><path class="d" d="M0,4.17v171.67c0,2.3,1.87,4.17,4.17,4.17h122.45s-11.43-15.73-11.43-15.73H15.73V15.78L4.27,0h-.1C1.87,0,0,1.87,0,4.17Z"/><path class="f" d="M23.71,0l11.43,15.73h129.17v148.54h-12.97l11.43,15.73h13.06c2.3,0,4.17-1.87,4.17-4.17V4.17c0-2.3-1.87-4.17-4.17-4.17H23.71Z"/><path class="e" d="M96.88,100.68c14.21-4.34,24.67-17.64,24.67-33.19,0-19.03-15.66-34.69-34.7-34.69h-41.99v112.1h15.73V48.53h26.19s.1,0,.15,0c10.26,0,18.71,8.44,18.71,18.71s-8.37,18.64-18.59,18.71h-20.32l68.35,94.06h19.45l-57.64-79.32Z"/></g></svg>